<svg width="49" height="48" viewBox="0 0 49 48" fill="none" xmlns="http://www.w3.org/2000/svg">
<path d="M43.9868 22.1614C43.863 21.0124 42.9201 20.326 41.766 20.2672C39.4826 20.1507 34.5109 20 24.0748 20C13.6387 20 8.66698 20.1507 6.3836 20.2672C5.22945 20.326 4.28653 21.0124 4.16274 22.1614C4.11045 22.6468 4.07477 23.2521 4.07477 24C4.07477 24.7479 4.11045 25.3532 4.16274 25.8386C4.28653 26.9876 5.22945 27.674 6.38361 27.7328C8.66698 27.8493 13.6387 28 24.0748 28C34.5109 28 39.4826 27.8493 41.766 27.7328C42.9201 27.674 43.863 26.9876 43.9868 25.8386C44.0391 25.3532 44.0748 24.7479 44.0748 24C44.0748 23.2521 44.0391 22.6468 43.9868 22.1614Z" fill="white"/>
<path d="M43.9868 9.16144C43.863 8.01243 42.9201 7.32599 41.766 7.26715C39.4826 7.15074 34.5109 7 24.0748 7C13.6387 7 8.66698 7.15074 6.3836 7.26715C5.22945 7.32599 4.28653 8.01243 4.16274 9.16144C4.11045 9.64683 4.07477 10.2521 4.07477 11C4.07477 11.7479 4.11045 12.3532 4.16274 12.8386C4.28653 13.9876 5.22945 14.674 6.38361 14.7328C8.66698 14.8493 13.6387 15 24.0748 15C34.5109 15 39.4826 14.8493 41.766 14.7328C42.9201 14.674 43.863 13.9876 43.9868 12.8386C44.0391 12.3532 44.0748 11.7479 44.0748 11C44.0748 10.2521 44.0391 9.64683 43.9868 9.16144Z" fill="white"/>
<path d="M43.9868 35.1614C43.863 34.0124 42.9201 33.326 41.766 33.2672C39.4826 33.1507 34.5109 33 24.0748 33C13.6387 33 8.66698 33.1507 6.3836 33.2672C5.22945 33.326 4.28653 34.0124 4.16274 35.1614C4.11045 35.6468 4.07477 36.2521 4.07477 37C4.07477 37.7479 4.11045 38.3532 4.16274 38.8386C4.28653 39.9876 5.22945 40.674 6.38361 40.7328C8.66698 40.8493 13.6387 41 24.0748 41C34.5109 41 39.4826 40.8493 41.766 40.7328C42.9201 40.674 43.863 39.9876 43.9868 38.8386C44.0391 38.3532 44.0748 37.7479 44.0748 37C44.0748 36.2521 44.0391 35.6468 43.9868 35.1614Z" fill="white"/>
</svg>
